<svg xmlns="http://www.w3.org/2000/svg" xmlns:xlink="http://www.w3.org/1999/xlink" width="536" zoomAndPan="magnify" viewBox="0 0 402 386.999991" height="516" preserveAspectRatio="xMidYMid meet" version="1.0"><defs><clipPath id="8987a2205f"><path d="M 61 71 L 401 71 L 401 386.25 L 61 386.25 Z M 61 71 " clip-rule="nonzero"/></clipPath></defs><path fill="#ffcfd3" d="M 21.242188 168.355469 C 21.148438 168.078125 21.054688 167.792969 20.960938 167.511719 L 20.71875 166.722656 C 20.894531 167.265625 21.066406 167.808594 21.242188 168.355469 M 301.34375 0.113281 C 300.628906 0.113281 299.925781 0.132812 299.230469 0.144531 C 289.78125 0.4375 280.339844 2.347656 270.359375 5.988281 C 261.316406 9.292969 252.257812 14.140625 243.441406 20.398438 C 234.957031 26.421875 227.261719 33.664062 220.582031 41.902344 C 212.207031 52.234375 206.113281 63.835938 202.695312 75.859375 C 201.789062 79.046875 197.699219 79.882812 195.671875 77.269531 C 195.429688 76.960938 195.195312 76.652344 194.957031 76.347656 C 187.851562 67.304688 179.574219 58.644531 170.359375 50.609375 C 150.070312 32.941406 128.980469 21.796875 107.691406 17.472656 C 98.101562 15.523438 88.871094 14.539062 80.257812 14.539062 C 73.257812 14.535156 66.523438 15.1875 60.230469 16.480469 C 47.410156 19.097656 35.945312 24.75 27.082031 32.828125 C 6.925781 51.164062 1.777344 78.980469 1.007812 99.09375 C 0.03125 124.878906 4.992188 152.445312 15.742188 181.035156 C 20.628906 193.984375 26.515625 206.105469 33.253906 217.054688 C 39.691406 227.550781 47.574219 237.707031 58.050781 249.027344 C 70.148438 262.105469 83.53125 274.628906 97.820312 286.246094 C 114.300781 299.644531 129.976562 310.015625 145.742188 317.933594 C 154.023438 322.097656 161.820312 325.171875 169.570312 327.3125 C 177.300781 329.453125 184.242188 330.496094 190.792969 330.496094 C 191.507812 330.496094 192.214844 330.484375 192.933594 330.460938 C 197.15625 330.300781 200.863281 329.824219 204.257812 329.003906 C 207.449219 328.222656 210.746094 327.113281 214.0625 325.707031 C 219.859375 323.246094 225.777344 319.65625 232.160156 314.75 C 237.605469 310.570312 243.046875 305.503906 248.792969 299.257812 C 254.402344 293.15625 259.914062 286.402344 265.195312 279.167969 C 274.828125 265.988281 283.914062 251.207031 293.789062 232.652344 C 308.292969 205.410156 321.949219 174.824219 335.535156 139.167969 C 346.722656 109.832031 356.570312 81.042969 354.175781 51.394531 C 353.265625 40.078125 350.023438 30.085938 344.546875 21.6875 C 339.8125 14.417969 332.863281 8.5625 324.445312 4.753906 C 317.746094 1.714844 309.761719 0.113281 301.34375 0.113281 " fill-opacity="1" fill-rule="nonzero"/><g clip-path="url(#8987a2205f)"><path fill="#eac4be" d="M 139.386719 89.574219 C 133.578125 89.574219 127.980469 90.082031 122.71875 91.089844 C 111.34375 93.261719 101.164062 98.109375 93.269531 105.113281 C 75.144531 121.175781 70.234375 146.113281 69.304688 164.207031 C 68.097656 187.804688 72.324219 213.152344 81.863281 239.550781 C 86.191406 251.496094 91.449219 262.6875 97.488281 272.804688 C 103.253906 282.480469 110.359375 291.890625 119.855469 302.417969 C 130.886719 314.660156 143.109375 326.402344 156.207031 337.335938 C 171.238281 349.886719 185.546875 359.625 199.945312 367.09375 C 207.429688 370.988281 214.464844 373.863281 221.449219 375.890625 C 228.328125 377.894531 234.492188 378.90625 240.273438 378.984375 C 240.898438 378.992188 241.519531 378.992188 242.140625 378.972656 C 245.859375 378.882812 249.089844 378.511719 252.027344 377.84375 C 254.820312 377.195312 257.730469 376.261719 260.664062 375.0625 C 265.8125 372.953125 271.132812 369.816406 276.914062 365.492188 C 281.882812 361.789062 286.878906 357.253906 292.183594 351.632812 C 297.402344 346.101562 302.550781 339.960938 307.492188 333.371094 C 316.546875 321.308594 325.132812 307.746094 334.511719 290.679688 C 348.324219 265.519531 361.402344 237.242188 374.480469 204.226562 C 385.136719 177.347656 394.546875 150.984375 392.71875 123.996094 C 392.046875 114.019531 389.332031 105.210938 384.636719 97.8125 C 380.671875 91.542969 374.777344 86.449219 367.585938 83.085938 C 361.828125 80.382812 354.898438 78.902344 347.542969 78.804688 L 347.535156 78.804688 C 346.996094 78.800781 346.460938 78.804688 345.921875 78.8125 L 345.644531 78.8125 C 337.234375 78.957031 328.761719 80.5625 319.765625 83.714844 C 311.5625 86.589844 303.328125 90.867188 295.28125 96.417969 C 287.558594 101.753906 280.523438 108.199219 274.382812 115.574219 C 267.015625 124.425781 261.410156 134.605469 258.1875 145.011719 C 257.3125 147.824219 254.972656 149.890625 252.074219 150.402344 C 249.144531 150.929688 246.203125 149.769531 244.398438 147.398438 C 237.953125 138.972656 230.476562 130.945312 222.132812 123.480469 C 203.863281 107.144531 184.847656 96.746094 165.621094 92.582031 C 156.921875 90.695312 148.546875 89.6875 140.730469 89.585938 C 140.285156 89.578125 139.835938 89.574219 139.386719 89.574219 Z M 240.960938 386.242188 C 240.699219 386.242188 240.4375 386.242188 240.175781 386.238281 C 233.730469 386.152344 226.941406 385.046875 219.421875 382.859375 C 211.976562 380.695312 204.511719 377.644531 196.605469 373.535156 C 181.734375 365.816406 166.992188 355.796875 151.554688 342.902344 C 138.203125 331.757812 125.726562 319.769531 114.464844 307.273438 C 104.648438 296.390625 97.277344 286.617188 91.261719 276.519531 C 84.980469 266.011719 79.523438 254.402344 75.042969 242.019531 C 65.171875 214.703125 60.804688 188.402344 62.058594 163.832031 C 63.058594 144.355469 68.449219 117.410156 88.453125 99.6875 C 97.324219 91.816406 108.699219 86.382812 121.359375 83.964844 C 127.5 82.789062 134.050781 82.242188 140.828125 82.328125 C 149.125 82.4375 157.984375 83.503906 167.15625 85.492188 C 187.625 89.929688 207.75 100.886719 226.964844 118.070312 C 235.65625 125.839844 243.441406 134.199219 250.109375 142.925781 C 250.328125 143.222656 250.546875 143.300781 250.808594 143.257812 C 251.152344 143.199219 251.226562 142.957031 251.253906 142.863281 C 254.816406 131.394531 260.71875 120.648438 268.808594 110.929688 C 275.371094 103.050781 282.886719 96.164062 291.164062 90.445312 C 299.738281 84.523438 308.554688 79.957031 317.363281 76.871094 C 327.101562 73.457031 336.324219 71.71875 345.546875 71.558594 L 345.855469 71.554688 C 346.445312 71.546875 347.039062 71.542969 347.640625 71.554688 C 356.019531 71.664062 363.980469 73.378906 370.667969 76.511719 C 379.113281 80.472656 386.0625 86.492188 390.769531 93.933594 C 396.109375 102.363281 399.203125 112.3125 399.960938 123.511719 C 401.886719 152.007812 392.199219 179.214844 381.222656 206.894531 C 368.03125 240.199219 354.832031 268.742188 340.867188 294.171875 C 331.324219 311.546875 322.5625 325.382812 313.296875 337.730469 C 308.191406 344.53125 302.867188 350.882812 297.464844 356.609375 C 291.863281 362.539062 286.5625 367.347656 281.257812 371.300781 C 274.980469 376 269.140625 379.425781 263.414062 381.773438 C 260.113281 383.125 256.832031 384.175781 253.652344 384.914062 C 250.230469 385.695312 246.527344 386.121094 242.316406 386.222656 C 241.863281 386.238281 241.414062 386.242188 240.960938 386.242188 " fill-opacity="1" fill-rule="nonzero"/></g></svg>